<svg xmlns="http://www.w3.org/2000/svg" xmlns:xlink="http://www.w3.org/1999/xlink" width="1080" zoomAndPan="magnify" viewBox="0 0 810 809.999993" height="1080" preserveAspectRatio="xMidYMid meet" version="1.0"><defs><g/><clipPath id="af6c5bf187"><path d="M 171.164062 240.359375 L 378.671875 240.359375 L 378.671875 560.460938 L 171.164062 560.460938 Z M 171.164062 240.359375 " clip-rule="nonzero"/></clipPath><clipPath id="0144fd2c1e"><path d="M 253.292969 241.101562 L 292.546875 241.101562 L 292.546875 280.355469 L 253.292969 280.355469 Z M 253.292969 241.101562 " clip-rule="nonzero"/></clipPath><clipPath id="0ee2490beb"><path d="M 272.921875 241.101562 C 262.082031 241.101562 253.292969 249.886719 253.292969 260.726562 C 253.292969 271.566406 262.082031 280.355469 272.921875 280.355469 C 283.761719 280.355469 292.546875 271.566406 292.546875 260.726562 C 292.546875 249.886719 283.761719 241.101562 272.921875 241.101562 Z M 272.921875 241.101562 " clip-rule="nonzero"/></clipPath></defs><rect x="-81" width="972" fill="#ffffff" y="-80.999999" height="971.999992" fill-opacity="1"/><rect x="-81" width="972" fill="#000" y="-80.999999" height="971.999992" fill-opacity="1"/><path fill="#fff" d="M 250.492188 348.179688 L 337.035156 251.351562 L 377.171875 286.972656 L 288.371094 386.308594 C 288.371094 386.308594 337.035156 431.09375 337.035156 472.601562 C 337.035156 535.054688 245.226562 559.144531 245.226562 559.144531 L 226.410156 509.226562 C 226.410156 509.226562 283.105469 493.582031 283.105469 470.34375 C 283.105469 437.351562 172.226562 378.589844 172.226562 302.523438 C 172.226562 264.917969 211.671875 242.027344 211.671875 242.027344 L 244.722656 283.210938 C 244.722656 283.210938 228.417969 293.242188 228.417969 308.042969 C 228.417969 328.613281 250.492188 348.179688 250.492188 348.179688 Z M 250.492188 348.179688 " fill-opacity="1" fill-rule="nonzero"/><g clip-path="url(#af6c5bf187)"><path stroke-linecap="butt" transform="matrix(2.006806, 0, 0, 2.006806, -244.124003, -472.70446)" fill="none" stroke-linejoin="miter" d="M 246.469351 409.050061 L 289.59408 360.800195 L 309.594378 378.550337 L 265.344571 428.049857 C 265.344571 428.049857 289.59408 450.366491 289.59408 471.05001 C 289.59408 502.170668 243.845467 514.17474 243.845467 514.17474 L 234.469172 489.300404 C 234.469172 489.300404 262.720687 481.504667 262.720687 469.924933 C 262.720687 453.484786 207.469257 424.203571 207.469257 386.299358 C 207.469257 367.560393 227.125024 356.153897 227.125024 356.153897 L 243.594369 376.675857 C 243.594369 376.675857 235.469674 381.674471 235.469674 389.049764 C 235.469674 399.300038 246.469351 409.050061 246.469351 409.050061 Z M 246.469351 409.050061 " stroke="#000000" stroke-width="1" stroke-opacity="1" stroke-miterlimit="4"/></g><g clip-path="url(#0144fd2c1e)"><g clip-path="url(#0ee2490beb)"><path fill="#fff" d="M 253.292969 241.101562 L 292.546875 241.101562 L 292.546875 280.355469 L 253.292969 280.355469 Z M 253.292969 241.101562 " fill-opacity="1" fill-rule="nonzero"/></g></g><g fill="#fff" fill-opacity="1"><g transform="translate(338.966763, 483.452534)"><g><path d="M 53.8125 0 L 39.359375 0 L 39.359375 -22.890625 L 19.28125 -22.890625 L 19.28125 0 L 4.8125 0 L 4.8125 -56.234375 L 19.28125 -56.234375 L 19.28125 -34.140625 L 39.359375 -34.140625 L 39.359375 -56.234375 L 53.8125 -56.234375 Z M 53.8125 0 "/></g></g></g><g fill="#fff" fill-opacity="1"><g transform="translate(392.059791, 483.452534)"><g><path d="M 14.859375 0 L -0.796875 0 L 20.484375 -56.234375 L 36.546875 -56.234375 L 57.84375 0 L 42.171875 0 L 38.5625 -10.046875 L 18.46875 -10.046875 Z M 22.09375 -20.484375 L 34.9375 -20.484375 L 28.515625 -39.359375 Z M 22.09375 -20.484375 "/></g></g></g><g fill="#fff" fill-opacity="1"><g transform="translate(443.546373, 483.452534)"><g><path d="M 19.28125 0 L 4.8125 0 L 4.8125 -56.234375 L 19.28125 -56.234375 L 19.28125 -34.140625 L 26.515625 -34.140625 L 39.046875 -56.234375 L 54.296875 -56.234375 L 38.5625 -28.515625 L 54.21875 0 L 38.953125 0 L 26.515625 -22.890625 L 19.28125 -22.890625 Z M 19.28125 0 "/></g></g></g><g fill="#fff" fill-opacity="1"><g transform="translate(492.301999, 483.452534)"><g><path d="M 14.859375 0 L -0.796875 0 L 20.484375 -56.234375 L 36.546875 -56.234375 L 57.84375 0 L 42.171875 0 L 38.5625 -10.046875 L 18.46875 -10.046875 Z M 22.09375 -20.484375 L 34.9375 -20.484375 L 28.515625 -39.359375 Z M 22.09375 -20.484375 "/></g></g></g><g fill="#fff" fill-opacity="1"><g transform="translate(543.788587, 483.452534)"><g><path d="M 4.8125 -56.234375 L 38.5625 -56.234375 C 44.175781 -56.234375 48.253906 -54.957031 50.796875 -52.40625 C 53.347656 -49.863281 54.625 -45.785156 54.625 -40.171875 L 54.625 -32.9375 C 54.625 -28.488281 53.882812 -25.03125 52.40625 -22.5625 C 50.9375 -20.101562 48.597656 -18.472656 45.390625 -17.671875 L 55.421875 0 L 39.765625 0 L 30.53125 -16.875 L 19.28125 -16.875 L 19.28125 0 L 4.8125 0 Z M 40.171875 -40.171875 C 40.171875 -43.378906 38.5625 -44.984375 35.34375 -44.984375 L 19.28125 -44.984375 L 19.28125 -28.109375 L 35.34375 -28.109375 C 38.5625 -28.109375 40.171875 -29.71875 40.171875 -32.9375 Z M 40.171875 -40.171875 "/></g></g></g><g fill="#fff" fill-opacity="1"><g transform="translate(596.078392, 483.452534)"><g><path d="M 14.859375 0 L -0.796875 0 L 20.484375 -56.234375 L 36.546875 -56.234375 L 57.84375 0 L 42.171875 0 L 38.5625 -10.046875 L 18.46875 -10.046875 Z M 22.09375 -20.484375 L 34.9375 -20.484375 L 28.515625 -39.359375 Z M 22.09375 -20.484375 "/></g></g></g></svg>
